<svg xmlns="http://www.w3.org/2000/svg" xmlns:xlink="http://www.w3.org/1999/xlink" xmlns:gg="http:/grass.itc.it/2006/gg" viewBox="-84.189480 -9.997939 0.154999 0.058615">
<title>v.out.svg riosDeTibas@PERMANENT riosTibas.svg</title>
 <g id="G_Lines" fill="none" stroke="#000" stroke-width="0.000155" >
  <path gg:cat="566" d="M -84.082495 -9.970829 l 0.001361 -0.002020 0.001836 -0.001279 0.001224 -0.000336 0.000884 -0.000269 0.001632 -0.000875 0.001223 -0.000134 0.001631 0.000001 0.001292 -0.000336 0.002992 -0.001413 0.003331 -0.000604 0.001564 -0.000672 0.001360 -0.001279 0.001495 0.000001 0.000680 -0.000269 0.000952 -0.001077 0.000409 -0.001886 0.000614 -0.002290 0.001701 -0.001750 0.001224 -0.001010 0.002652 -0.000941 0.002787 -0.000402 0.002108 -0.000537 0.000612 -0.000673 0.001498 -0.003098 0.001158 -0.002829 0.000151 -0.001133" />
  <path gg:cat="667" d="M -84.189480 -9.973977 l 0.001274 -0.000132 0.002011 0.000333 0.001676 0.000067 0.001207 -0.000066 0.000536 0.000864 0.000402 0.000798 0.000066 0.001196 0.000871 0.001396 0.000871 0.000000 0.001944 -0.000132 0.001944 0.000400 0.002748 0.000533 0.002278 0.001663 0.003217 0.001862 0.001340 0.000998 0.000939 -0.000863 0.001543 -0.001993 0.002011 -0.000398 0.002682 -0.000397 0.003420 -0.001859 0.001743 -0.000132 0.001675 0.001795 0.002479 0.001331 0.002212 0.000599 0.001608 0.000998 0.001407 0.001197 0.001206 0.000134 0.002079 -0.000863 0.002145 -0.000464 0.002346 -0.000264 0.002079 -0.001594 0.002615 -0.001593 0.002748 0.000400 0.003083 0.000600 0.003284 0.000866 0.003552 0.001199 0.003418 0.000999 0.002078 0.000666 0.001742 0.001530 0.000871 0.000732 0.002816 -0.000596 0.002547 0.000135 0.000604 -0.000664 0.000135 -0.001130 0.001743 -0.000132 0.004692 -0.000063 0.003083 0.000002 0.001676 0.000001 0.001877 -0.000663 0.002817 -0.001593 0.003018 -0.001393 0.002146 -0.000995 0.002013 -0.001992 0.001743 -0.000464 0.001608 0.000466 0.001407 0.001463 0.000938 0.000333 0.001207 -0.000198 0.000872 -0.000996 0.002815 0.000268 0.003016 0.000733 0.001407 0.000799 0.001542 -0.000198 0.002012 -0.001460 0.002078 0.000068 0.001140 -0.000132 0.001275 -0.001395 0.001810 0.000334 0.000805 -0.000199 0.000671 -0.000797 0.000135 -0.001063 0.000671 -0.000531 0.002011 0.000002 0.001073 -0.000265 0.000068 -0.001396 -0.000201 -0.000598 0.000001 -0.000797 0.000202 -0.000465 0.000537 -0.000398 0.001541 0.000334 0.000872 -0.000132 0.001542 -0.000464 0.001275 -0.001195 0.000538 -0.001727 0.000805 -0.000930 0.001745 -0.001793 0.001207 -0.000863 0.001275 -0.001129 -0.000067 -0.000399 -0.000468 -0.000864 0.000001 -0.000797 0.000738 -0.000465 0.001542 -0.000132 0.002147 -0.001593 0.002281 -0.001659 0.000671 -0.000265" />
  <path gg:cat="849" d="M -84.089208 -9.945702 l 0.000158 0.000087 0.000317 0.000262 0.000669 0.000158 0.000176 0.000175 0.000334 0.000157 0.000528 0.000035 0.000581 0.000035 0.000176 0.000105 0.000528 0.000070 0.000194 -0.000314 0.000106 -0.000262 0.000194 -0.000105 0.000247 -0.000279 0.000264 -0.000541 0.000299 -0.000087 0.000158 0.000035 0.000194 0.000140 0.000158 0.000157 0.000299 0.000000 0.000246 -0.000035 0.000458 -0.000069 0.000546 0.000018 0.000158 0.000244 0.000193 0.000192 0.000070 0.000314 0.000017 0.000297 0.000053 0.000052 0.000299 0.000035 0.000088 -0.000070 0.000528 0.000192 0.000493 0.000454 0.000053 0.000384 0.000017 0.000175 -0.000035 0.000349 -0.000123 0.000192 -0.000194 0.000244 -0.000123 0.000174 -0.000387 0.000122 -0.000211 -0.000122 -0.000123 -0.000000 0.000035 0.000140 0.000088 0.000175 0.000035 0.000209 -0.000159 0.000244 -0.000071 0.000157 -0.000264 0.000139 0.000158 0.000262 0.000105 0.000175 0.000035 0.000209 0.000176 0.000105 0.000422 0.000070 0.000158 0.000105 0.000070 0.000279 -0.000088 0.000401 0.000228 0.000471 0.000616 0.000262 0.000546 -0.000209 0.000335 -0.000244 0.000194 -0.000262 0.000458 -0.000384 0.000458 -0.000035 0.000264 0.000018 0.000229 0.000122 0.000405 0.000018 0.000264 -0.000052 0.000132 0.000018 0.000264 0.000349 0.000229 0.000053 0.000581 0.000070 0.000369 0.000262 0.000422 0.000053 0.000211 -0.000017 0.000317 -0.000035 0.000229 0.000018 0.000141 0.000070 0.000229 0.000070 0.000194 0.000000 0.000123 -0.000122 0.000123 -0.000157 0.000370 -0.000070 0.000317 0.000035 0.000528 -0.000069 0.000352 -0.000104 0.000229 -0.000070 0.000211 -0.000017 0.000299 0.000227 0.000088 0.000035 0.000211 0.000035 0.000352 -0.000035 0.000229 -0.000279 0.000088 -0.000227 0.000053 -0.000332 0.000000 -0.000209 0.000123 -0.000209 0.000176 0.000000 0.001206 0.000036 0.000581 0.000053 0.000440 0.000280 0.000246 0.000192 0.000581 -0.000279 0.000387 0.000000 0.000669 0.000193 0.000105 0.000384 0.000123 0.000192 0.000070 0.000052 0.000299 0.000070 0.000211 -0.000017 0.000264 0.000000 0.000229 0.000105 0.000422 0.000227 0.000124 -0.000576" />
 </g>
</svg>
