<svg xmlns="http://www.w3.org/2000/svg" xmlns:xlink="http://www.w3.org/1999/xlink" xmlns:gg="http:/grass.itc.it/2006/gg" viewBox="-84.107098 -9.972659 0.052027 0.031915">
<title>v.out.svg tibas@PERMANENT Tibas.svg</title>
 <g id="G_Lines" fill="none" stroke="#000" stroke-width="0.000052" >
  <path d="M -84.055071 -9.972659 l -0.000040 0.001244 -0.000756 0.002698 -0.005618 0.003989 -0.000542 0.000217 0.000102 0.001266 -0.000339 0.001184 -0.000302 0.000785 -0.000373 0.000594 -0.000452 0.000734 -0.000240 0.000211 -0.000279 0.000731 -0.000177 0.000510 -0.000213 0.000476 -0.000566 0.000816 -0.000517 0.001069 -0.000258 0.000569 -0.000300 0.000766 0.000017 0.000345" />
  <path d="M -84.065925 -9.954455 l -0.000384 0.000595 -0.000760 0.000416 -0.000703 0.000173 -0.000388 0.000398 -0.000474 0.000066 -0.000869 0.000037 -0.000762 0.000174 -0.000336 -0.000064 -0.001078 0.000030 -0.000670 0.000184 -0.000749 0.000266 -0.000378 0.000272 0.000101 0.000459 -0.000235 0.000533 -0.000360 0.000006 -0.000304 0.000559 -0.000593 0.000655 -0.000324 0.000006 -0.000546 -0.000141 -0.000458 -0.000327 -0.000761 -0.000472 -0.000890 -0.000520 0.000538 0.000987 -0.000228 0.000972 -0.000203 0.001087 -0.000218 0.000926 -0.000205 0.000234 -0.000225 0.000453 0.000009 0.000531 0.000110 0.001207 0.000255 0.001264 -0.000050 0.001222 -0.000222 0.000672" />
  <path d="M -84.107098 -9.960460 l 0.000456 0.000327 0.000496 0.000499 0.000399 0.000362 0.000229 0.000596 0.000284 0.000341 0.000482 0.001098 0.000719 0.000022 0.001314 -0.000495 0.000442 0.000108 0.000564 -0.000274 0.000391 -0.000191 0.000478 0.000130 0.000583 0.000187 0.000523 0.000094 0.000494 0.000430 0.000382 -0.000006 0.000234 0.000146 0.000679 0.000392 0.000247 0.000238 0.000319 0.000352 0.000169 0.000526 -0.000109 0.000348 -0.000189 0.000522 -0.000248 0.000477 0.000134 0.000355 0.000364 0.000340 0.000377 0.000408 0.000031 0.000460 -0.000244 0.000672 0.001156 0.000477 0.000349 0.000086 0.000293 0.000203 0.000631 -0.000403 0.000507 -0.000170 0.000406 -0.000007 0.000294 0.000307 0.000335 0.000651 0.001751 0.000777 0.000278 -0.000120 0.000441 0.000096 0.000820 0.000447 0.000338 0.000167 0.000510 -0.000055 0.000480 0.000280 -0.000300 0.000858 -0.000057 0.000762 -0.000047 0.000681 0.000011 0.000691 0.000972 0.000663 0.001048 0.000271 0.000457 0.000235 0.000748 0.000414 0.000336 -0.000029 0.000330 -0.000351 0.000063 -0.000382 0.000286 -0.000304 0.000313 0.000063 0.000234 0.000158 0.000313 -0.000016 0.000494 -0.000227 0.000396 -0.000030 0.000324 0.000029 0.000261 0.000399 0.000162 0.000781 0.000204 0.000411 0.000289 -0.000086 0.000248 -0.000372 0.000205 0.000457 0.000219 0.000688 -0.000163 0.000694 -0.000510 -0.000003 -0.000572 -0.000302 -0.000357 0.000167 0.000006 0.000346 0.000422 0.000315 0.000269 0.000122 -0.000089 0.000278 -0.000240 0.000177 0.000039 0.000264 0.000251 0.000457 0.000398 0.000235 0.000286 -0.000247 0.000388 -0.000375 0.000296 -0.000386 0.000893 0.000043 0.000558 0.000129 0.000291 0.000075 0.000543 -0.000089" />
  <path d="M -84.107098 -9.960460 l 0.000647 -0.000760 -0.000014 -0.000910 -0.000266 -0.000641 0.000074 -0.000439 0.000337 0.000052 0.000743 0.000046 0.000929 0.000087 0.000661 -0.000010 0.000903 -0.000016 0.000812 -0.000002 0.001118 0.000201 0.000752 -0.000013 0.000925 -0.000188 0.000729 -0.000047 0.000869 -0.000096 0.001044 0.000029 0.000664 0.000231 0.001357 0.000081 0.000650 0.000047 0.000497 -0.000100 0.000333 -0.000213 0.000421 -0.000514 0.000409 -0.000537 0.000505 -0.000377 0.000439 -0.000054 0.000488 0.000096 0.000568 -0.000021 0.000006 -0.000357 -0.000171 -0.000481 -0.000134 -0.000436 0.000762 -0.000174 0.000602 -0.000068 0.000542 -0.000170 0.000216 -0.000349 0.000106 -0.000601 0.001034 0.000155 0.000627 0.000094 0.000711 0.000241 0.000286 -0.000235 0.000280 -0.000604 0.000350 -0.000571 0.000398 -0.000479 0.000562 -0.000378 0.000202 -0.000476 0.000372 -0.000698 0.000351 -0.000491 0.000659 -0.000207 0.000454 -0.000037 0.000633 0.000572 0.000980 0.000387 0.001167 0.000476 0.000516 0.000372 -0.000083 0.000624 -0.000095 0.000532 0.000199 0.000159 0.000543 -0.000114 0.003705 -0.001110 0.000797 -0.000060 0.000557 -0.000032 0.000598 0.000405 0.000745 0.000195 0.000868 -0.000107 0.000843 -0.000152 0.000282 0.000225 0.000589 0.000556 0.000207 0.000607 0.000194 0.000538 0.000679 -0.000264 0.000386 0.000167 0.000658 -0.000173 0.000024 -0.000692 0.000409 -0.000514 0.000456 0.000246 0.000647 -0.000184 0.000605 -0.000667 0.002935 0.000147 0.000669 -0.000138 0.000930 0.000065 0.000158 -0.000268 0.000329 -0.001169 0.003627 -0.000176 0.001461 -0.002259" />
 </g>
</svg>
